<?xml version="1.0" encoding="UTF-8"?>
<svg xmlns="http://www.w3.org/2000/svg" viewBox="0 0 512 512" role="img" aria-labelledby="title description">
  <title id="title">GRE 3000 词离线版图标</title>
  <desc id="description">绿色圆角方形中的打开书本和 GRE 字母</desc>
  <rect x="24" y="24" width="464" height="464" rx="96" fill="#0F6A57"/>
  <rect x="42" y="42" width="428" height="428" rx="78" fill="none" stroke="#58B69A" stroke-width="8"/>

  <path d="M76 151 Q156 107 244 145 L244 342 Q158 304 76 342 Z" fill="#F8FCFA" stroke="#153F36" stroke-width="12" stroke-linejoin="round"/>
  <path d="M436 151 Q356 107 268 145 L268 342 Q354 304 436 342 Z" fill="#F8FCFA" stroke="#153F36" stroke-width="12" stroke-linejoin="round"/>
  <path d="M256 151 L256 348" fill="none" stroke="#58B69A" stroke-width="12" stroke-linecap="round"/>
  <path d="M105 181 Q165 153 219 174 M105 225 Q165 197 219 218 M105 269 Q165 241 219 262" fill="none" stroke="#91CDBB" stroke-width="9" stroke-linecap="round"/>
  <path d="M407 181 Q347 153 293 174 M407 225 Q347 197 293 218 M407 269 Q347 241 293 262" fill="none" stroke="#91CDBB" stroke-width="9" stroke-linecap="round"/>

  <path d="M170 376 H148 A31 31 0 1 0 170 407 V395 H153" fill="none" stroke="#F1FBF6" stroke-width="18" stroke-linecap="round" stroke-linejoin="round"/>
  <path d="M214 422 V360 H241 A21 21 0 0 1 241 402 H214 M238 402 L263 422" fill="none" stroke="#F1FBF6" stroke-width="18" stroke-linecap="round" stroke-linejoin="round"/>
  <path d="M333 360 H288 V422 H333 M288 391 H325" fill="none" stroke="#F1FBF6" stroke-width="18" stroke-linecap="round" stroke-linejoin="round"/>
</svg>
